<?xml version="1.0" encoding="utf-8"?>
<!-- Generator: Adobe Illustrator 16.0.4, SVG Export Plug-In . SVG Version: 6.00 Build 0)  -->
<!DOCTYPE svg PUBLIC "-//W3C//DTD SVG 1.1//EN" "http://www.w3.org/Graphics/SVG/1.1/DTD/svg11.dtd">
<svg version="1.1" id="Layer_1" xmlns="http://www.w3.org/2000/svg" xmlns:xlink="http://www.w3.org/1999/xlink" x="0px" y="0px"
	 width="32px" height="32px" viewBox="0 0 32 32" enable-background="new 0 0 32 32" xml:space="preserve">
<g>
	<polygon points="29.857,6.352 29.584,6.297 2.416,6.297 2.248,6.331 16.004,18.585 	"/>
	<path d="M31.393,7.586l-9.783,8.637l9.658,8.451c0.151-0.277,0.258-0.576,0.258-0.913V8.238
		C31.525,8.006,31.468,7.792,31.393,7.586z"/>
	<path d="M0.627,7.487C0.531,7.719,0.475,7.971,0.475,8.238v15.523c0,0.285,0.068,0.548,0.178,0.791l9.749-8.358L0.627,7.487z"/>
	<polygon points="15.996,21.179 11.865,17.498 2.313,25.682 2.416,25.703 29.497,25.703 20.143,17.518 	"/>
</g>
</svg>
